<svg xmlns="http://www.w3.org/2000/svg" fill="none" viewBox="0 0 40 36"><path fill="#000" fill-rule="evenodd" d="M39.74 16.63l-1.94-1.87-8.62-8.07c-.37-.36-.93-.36-1.37 0-.38.36-.5 1.02 0 1.39l9.06 8.55a1 1 0 010 1.39l-9.25 8.86a1 1 0 000 1.38c.38.37 1.07.3 1.38 0l8.62-8.25 2.12-2c.38-.35.31-1.02 0-1.38zM3.32 18.02a1 1 0 010-1.39l8.87-8.55c.5-.37.38-1.03 0-1.4-.44-.35-1-.35-1.37 0L2.2 14.77.26 16.63c-.31.36-.38 1.03 0 1.39l1.94 2.11.06.06L11 28.27c.32.3 1 .36 1.38 0a1 1 0 000-1.39l-9.06-8.86zM30 11.99h-8.38L29.75 0H17.57L11 17.84l8 .06-6.26 17.65L30 12z" clip-rule="evenodd"/></svg>