<svg xmlns="http://www.w3.org/2000/svg" fill="none" viewBox="0 0 1104 928"><path fill="#C7E8FE" d="M901.33 51.4c37.24 50.31 27.14 147.95 59.42 224.4 32.08 76.64 106.75 132.1 132.49 203.8 25.95 71.69 3.17 159.62-51.89 215.27-54.86 55.85-142 79.62-224.78 91.7-82.79 12.08-161.02 12.68-225.19-15.05-64.16-27.93-114.27-84.17-178.04-139.03-63.58-54.86-141.01-108.14-182.8-186.37-41.8-78.23-48.13-181.21-5.35-256.08 42.78-75.06 134.87-122.2 221.22-149.92C532.96 12.19 613.96 3.48 696.75.71c82.78-2.77 167.35.4 204.58 50.7z"/><path fill="#83C9F1" d="M113.2 574.1c6.69-55.15 43.7-107.77 95-112.97 51.18-5.18 116.56 37.33 170.35 48.58 53.78 11.25 96.11-8.67 131.22-1.42 35.23 7.23 63.22 41.5 92.57 80.5 29.36 39 59.95 82.73 47.72 116.82-12.2 34.2-67.35 58.78-100.23 98.56-32.89 39.8-43.54 94.67-72.77 114.15-29.26 19.36-77.07 3.43-125.24-8.4-48.05-11.84-96.55-19.45-129.45-46.33-32.93-27.01-50.5-73.25-71.08-125.09-20.72-51.93-44.69-109.4-38.09-164.4z"/><path fill="#fff" fill-rule="evenodd" d="M338 347.12l9.42 95.1 51.28-29.26v91.2c0 1.68-1 7.45 0 8.9.85 1.24 7.11 1.28 8.6 1.48 9.66 1.36 19.35 2.56 29.05 3.63 25.57 2.83 52.94 6.87 78.6 3.63 22.32-2.82 43.95-10.76 64.34-20a356.1 356.1 0 0021.14-10.41c1.46-.79 6.8-2.64 7.6-4.25.64-1.3-.88-5.9-1.09-7.27l-2.58-17.38-12.03-80.89 22.72 22.7c1.78 1.78 5.16 6.82 7.63 7.61 1.8.58 6.28-1.2 8.06-1.55l38.6-7.44c3-.58 9.76-.56 12.3-2.37 1.35-.97 1.42-2.96 1.9-4.84l9.41-36.89c.57-2.21 3.72-9.2 2.92-11.43-.29-.8-1.68-1.34-2.53-1.86l-58.27-35.6-31.92-19.49c-4.45-2.72-9.93-7.63-14.98-9.15-3.13-.94-7.7-.24-10.94-.33l-19.78-.56c-1.03-.03-4.64-.77-5.51-.16-.73.5-.43 1.21-.66 2.42-.58 2.94-.59 6.12-.87 9.1-.23 2.4.22 6.8-.86 8.98-.69 1.39.19.83-.75 1.5-1.11.8-4.66.55-5.99.7l-19.38 2.25c-7.68.9-15.44 2.57-23.16 1.8-11.7-1.17-24.3-1.11-35.8-3.58-2.98-.64-4.06-2.32-6.36-4.62-4.5-4.49-8.94-9.03-13.49-13.47-2.22-2.17-1.27-1.8-3.56-.98-2.88 1.04-5.8 3.53-8.4 5.12l-29.94 18.23-60.9 37.1-3.82 2.32z" clip-rule="evenodd"/><path fill="#000" fill-rule="evenodd" d="M920.62 351.06c-12.56 47.67-37.82 99.65-88.7 114.84-12.36 3.7-24.4 6.48-37.25 5.08-1.22-.14-2.24.03-3.4.06-2.09.04-.29.78-2.63.06-1.82-.56-3.52-1.97-5.42-2.59-5.05-1.65-10.43-1.97-15.56-3.3a402 402 0 01-37.82-11.86c-5.75-2.13-11.04-5.1-16.45-7.94-5.5-2.9-11.33-4.7-16.89-7.36-4.4-2.1-11.93-4.84-15.02-8.79-3.3-4.2 1.27-13.15 2.57-17.62 4.43-15.21 9.7-30.2 13.04-45.71 11.5 13.32 27.46 21.58 43.99 26.9a163.97 163.97 0 0027.51 6.29c8.47 1.18 17.6 2.62 26.09.93 6.4-1.27 14.45-4.21 19.02-9.1 1.64-1.75 3.6-4.95 2.68-7.49-1.16-3.21-4.55-1.7-6.38-4.1-1.6-2.1-1.34-6.99-1.85-9.54-.9-4.5-2.14-8.9-3.64-13.23-2.93-8.43-6.58-16.88-7.45-25.85a36.17 36.17 0 014.9-21.9c1.82-3.18 6.43-11.87 10.93-11.5 4.94.39-1.72 21.2-1.94 25.44-.86 16.83 1.4 34.76 10.03 49.5 3.3 5.65 8.09 12.23 15.14 12.93 7.48.74 13.51-5.14 17.07-11.1 8.68-14.52 4.3-34.44-.1-49.66-5.39-18.68-19.47-31.55-28.37-48.31 13.3 1.33 20.41 9.78 27.23 20.49a123.14 123.14 0 0116.24 39.68c1.46 6.93.45 13.9.46 20.9 0 2.32 0 10.9 3.8 10.56 4.05-.36 5.44-10.04 6.03-12.99 1.37-6.77 2.85-13.54 4.04-20.35 2.1-12.04 3.03-24.37 5.54-36.33.43-2.02 1.28-7.63 4.3-6.12 2.33 1.17 1.96 9.84 2.04 11.86.21 4.97.5 9.94.55 14.9.06 7.38-1.41 15.01-.69 22.34.47 4.78 3.04 10.07 6.23 3.62 3.15-6.4 3.8-14.39 5.56-21.27 1.85-7.23 3.76-14.57 7.68-20.99 1.1-1.78 2.26-4.6 4.68-3.77 1.76.6 3.06 4.78 3.6 6.25 2.46 6.65 2.04 14.04 1.89 21-.2 8.53-1.1 16.87-3.28 25.14zm-244.86 12.37a38.3 38.3 0 00-4.22-.55c-.83-.07.1-1.6-1.9-1.17.4.96 1.08 1.6 2.07 1.92-3.02 1.02-5.24-1.5-7.3-1.82-1.98-.3-2.06 0-4 2.08-2.12-2.57-1.72-.96-3.45-.96-.64 0-.66.95-1.69.84-.9-.1-1-1.46-1.52-1.62-2.88-.87-5.84 3.5-9.1-.3-.8 3.96-9.85-1-13.34-.3-3.65.73-2.08 2.04-5.03-.2-2.81-2.13-2.03-.72-5.3 1.03.07-.04-1.85 1.26-1.67 1.28-2.27-.27-2.14-2.6-5-2.48-3.04.13-4.34 2.51-7.12-.42-.6 2.2-.73 1.25-2.16 1.8a2.06 2.06 0 01-2.05-.62c-.18.6-.57.98-1.18 1.11-1.55.14-4.46.36-5.87-.39-2.11-1.12-.41-1.55-1.88-2.81-.66 3.48-2.1 2.74-5.13 3.06-2.32.25-2.83-.46-5.05-.8-2.18-.35-5 .5-7.12.86-.88.15-2.05.76-2.95.55-.8-.2-1.15-.82-1.63-.99-.58-.2-.46-.7-1.47-.95-.7-.17-1.94.48-2.63.6-4.96.8-9.72.8-14.45-1.14 2.33 4.09-5.45 1.88-6.83.19-1.73 2.7-3.83.8-7.32 1-3.36.2-8.42 1.24-9.78-2.95-.27.85-2.18 3.32-2.94 3.7-2.2 1.1-2.46-.52-4.51-1.18-2.8-.9-2.21.8-3.94 1.15-2.92.58-4.5-1.47-7.08-2.57-.1 1.7-.16 2.75-1.63 3.8-1.3-4.73-5.94.4-5.15-5.94-1.76 1.15-4.25 2.04-4.75 4.36 2.95-.81.31 1.12.19 1.19-.4.2-1.71-1.65-2.02-1.91l-.25 2.62c-1.17-.6-2.28-1.64-3.23-2.17-.87-.48.37-1.47-1.09-1.54-.76-.03-1.56 1.63-2.37 1.77-1.23.21-.63-1.55-1.15-1.5-.78.1-2.06 1.25-2.65 1.22-1.95-.07-.63-.97-2.12-1.39-2.65-.74-2.48 1-4.38 1.62-4.37 1.43-3.93-5.16-8.36-.76-1.06 1.05-1.75 2.67-3.2 2.58-3.01-.19-1.96-3.76-1.34-5.5.63.3-11 6.28-10.91 6.05.07-1.43 1.9-2.54.26-3.81-1.33 2.87-2.74 2.92-5.82 3.45-1.5.26-1.8.6-3.4-.01-1.02-.4-1.7-2.03-2.73-2.12.14.01-1.72 1.43-2 1.56-1.69.76-2.75-.1-4.39.2-1.4.28-1.94 1.46-3.33 1.14-1.85-.44-.76-2.65-3.31-2.03-.87.21-1.4 1.89-2.77 2.23-2.14.55-4.76-.46-7.02.06-1.8.42-3.12.6-4.7.69-1.26.07-.74-.92-3.07.25l-.99-2.5-3.5 3.15c-.23-.94-.37-1.9-.43-2.86-1.74 1.75-3.93 2.04-6.27 2.2-2.54.17-4.43.72-6.9 1.19-.77.14-2.78.38-3.42.1.1.04-1.2-.5-.81-.4-.17-.33-.33-.68-.47-1.04-.22-.98-.93-1.02-2.12-.13-.62-.1-1.82-.9-2.44-.7-1.59.51-1.37 1.75-2.96 1.57-1.03-.12-1.55-1.64-2.62-1.75-1.64-.15-3.06 1.68-4.54 2.08 4.49-1.22-5.82-.27-2.62-.19-2.1-.05-4.28-.16-6.23.79-1.07-.74.23-2.21-.85-2.82-.99-.55-1.06.9-1.18.94.62-.18.31 1.06-.3 1.28-1.94.68-3.5-1.06-3.6-2.8-1.64 2.48-2.1 1.49-4.51 1.64-2.39.15-4.45 1.4-6.83 1.38-4.72-.05-7.92-1.69-9.5-5.9 5.03.61 10.09-2.62 15-1.86 1.62.25 2.63 1.47 4.05 1.25 1.74-.26 2.96-2.17 5.2-2.37 4.93-.45 9.8-.01 14.76-.77 5.93-.9 12.12-1.44 18.11-1 4.63.34 8.38-1.43 13.07-1.77 6.07-.44 12.2-.52 18.27-.84 6.25-.33 12.97-1.32 19.2-1 1.94.1 3.62.29 5.55.17.81-.05 1.59-.6 2.44-.52 1.12.1 1.6 1.25 2.76 1.21 1.96-.07 4.06-1.69 6.4-1.73 3.84-.07 7.67-.06 11.52-.28 3.4-.2 7.03-.99 10.4-.95 2.39.03 2.98 2.06 4.36 2.27 2.5.38 15.13-6.8 16.22-.36 6.57-4.5 15.38-.69 22.7-1.53 9.4-1.09 18.97-.12 28.44-.5 9.63-.4 19.53-.04 29.12.87 3.98.38 7.81.73 11.8.5 1.77-.1 3.83-.55 5.6-.14.43.1 3.73 2.4 3.32 2.46 1.8-1.61.58-1.85 3.74-1.93 2.44-.07 4.75.46 7.18.6 4.35.26 8.74-.34 13.08-.2 3.63.1 7.18.64 10.83.66 3.93.03 8.57.14 11.41 3.31l-.9-2.98c4.4.34 8.73 1.9 13.16 1.17-1.12 1.08-2.26 1.96-2.69 3.53 2.4-.3 4.01-1.97 6.53-1.98 2.12-.02 2.56 1.05 4.8-.33l.82 5.04c3.09-.73 1.06-3.03 1.29-5.11 2.51.75 4.64-.11 3.65 3.5-.77 2.8-4.25 4.17-6.87 3.32zm-4.34 31.05c-1.08 3.03-10.4 1.3-12.62.98-2.84-.41-6.1-1.07-8.73-1.4-.32-.41-.7-.77-1.13-1.06a2.7 2.7 0 01-1.26.98c-1.2.26-1.2 1.5-2.79 1.23-.07 1.84 1.2.8 2.19 1.46-2.47 1.66-1.34-.25-2.73-.22a1.34 1.34 0 00-1.43-.57c-.78.2-1.5.54-2.16 1-.62.66-1.15.69-1.59.1a2.74 2.74 0 00-1.54-.78c-2.43.4-3.11 1.47-5.85 1.3-3.91-.25-8.15.78-12 .23-2.39-.33-6.38-4.08-7.46-.43-1.65-2.7-4.28-4.55-5.86-7.32 7.36-.43 14.72-.93 22.09-1.2 6.45-.23 13.5.5 19.53.2 5.65-.3 11.63-.92 17.4-1.43 6.1-.55 8.13.8 5.94 6.93zm-192.03.45c2.68.74 5.22-.94 7.81-.4.86.17 2.63 1.73 3.02 1.76.72.06 2.82-1.48 3.72-1.68 5.69-1.3 12.59-1.16 18.28-.36 3.01.42 3.48-.96 6.11-1.63 2.74-.7 6.63-.16 9.5-.36 6.79-.45 13.56-.13 20.3-.62 6.9-.51 13.78-.79 20.7-1.14 4.71-.24 16.03-2.93 19.93.57 3.23 2.88-.92 7.88-4.14 9.03-2.41.85-3.57-.95-5.35-.78-2.04.2-1.33 2.6-3.15.37-1.12 2.22-8.2 1.28-10.23 1.42-4.42.32-8.16 1.21-11.17-2.91l.62 3.56c-4-2.13-8.27-1.45-11.74-.7-1.71.37-6.98 2.9-8.84 1.81-1.27-.75.98-2.04-1.18-2.69-1.13-.33-3.08 1.54-4.46 1.45-3.82-.26-2.74-2.83-6.5.44-1.26-1.1-1.69-2.97-1.52-4.58-2.73 2.33-2.5 6.2-7.37 5.5-1.82-.27-2.15-2.12-3.1-2.46-2.02-.73-2.25.58-4 1.62-.66.39-1.46 1.02-2.24 1.1-1.6.15-1.85-.58-2.07-.56-1.06.12-2.4.66-3.66.28-1.13-.35-1.46-2.35-3.45-1.88-1.9.45-1.92 1.74-1.58 3.68-1.88-.2-3.01-1.24-4.42-2.38-1.42 3.32-4.41.57-6.07 3.37-2.15-2.57-3.53-1.87-6.2-4.38l.39 3.15c-2.09-.4-3.01-1.88-4.8.07-1.72-3.22-6.96 1.37-9.65-1.74-1.2 3.94-9.13 3-12.48 3.06-2.97.06-5.17-.18-8.07.51-2.56.6-6.11 1.24-8.52.96-1.58-.18-3.3-.47-5.26-.25-2.83.3-5.28 1.77-8.2 1.07-4.42-1.04-7.13-6.84-2.21-9.38 3.36-1.75 9.42-1.1 13.13-1.42 6.13-.54 13-1.65 19.15-1.14 4.8.4 9.16-.75 14.05-1.23 3.68-.37 9.71-1.02 12.11 2.63.92-1.07.83-3.29 2.81-2.74zm-67.16 49.94c-.66-3.29 27.4-5.1 30.17-5.3 5.85-.46 11.71-.78 17.57-.93 4.82-.12 9.31.8 14.13.06 4.5-.69 9.93-2.1 13.84 1.08.58-4.35 17.46-2.23 20.68-2.22 13.98.05 27.36.08 40.88-.78 7.73-.5 15.94-1.16 23.67-.78 3.49.18 6.3 1.1 9.76.3 2.27-.53 4.7-1.62 6.87-.07 2.53 1.8 3.61 7.96 1.87 10.52-1.27 1.88-2.4 1.67-4.43 1.34-3.12-.5-5.44-1.21-8.62.05.52-.2-2.13.39-1.9.37-3.61.27-8.55 2.79-11.66-.11 1.25.22 3.05-2 1.49-2.19-1.18-.13-1.93 1.13-2.85 1.55-3.14 1.45-4.75 1-6.63-2.04-3.78 3.28-4.2 2.37-5.85-1.67-1.28.99-1.56 3.32-2.57 4.09-.15.11.47 1.53-.25 1.47-.68-.06-.9-1.16-1.42-1.25-.33-.06-.5-1.03-.82-1.09-.34-.06-.7.56-1.09.54-1.04-.05-4.01 2.17-2.94-.94-1.58 2-2.26.73-2.83-1.1l-5.46 4.15c-.84-2.35-2.3-1.71-4.13-.89.55-1.63.2-3.18-1.18-2.04-.8.66-1.34 2.74-2.16 3.63-3.33-3.36-4.53-2.44-9.13-2-1.75.16-3.93.49-5.5-.57-1.37-.93-2.15-4.35-4.5-1.59.52-.61-.3 4.1-.44 4.85a10.25 10.25 0 01-2.65-2.58c-1.35 2.68-4.9.27-7.82.82-4.59.87-9.32 2.32-13.37-1.1-.29 1.1-3.6 2.51-3.61 2.55.2-1.95 1.43-1.26-1.09-1.63-.46-.07-.99.76-1.42.85-1.5.31-3.25.02-4.76-.03-6.29-.18-12.04 1.22-18.25 1.72-2.09.17-4.57.5-6.53-.28-2.03-.82-1.97-1.74-4.02-1.22.65-.16-1.28 1.86-1.17 1.79-.28.2-1.43-.8-1.84-.72l-.35 1.3-1.48-.18c-1.35.18-2.57-1.19-3.84-1.24.23.01-3.42 1.37-3.25 1.46-2.56-1.28-1.82-.9-5.06-.13-3.06.73-6.1.56-9.24 1.02-9.13 1.32-3.7-3.25-4.82-8.84zm-8.06 45.65c-1.72-2.44 2.85-3.28 4.3-3.5 2.4-.35 5.6.36 7.19-.03 2.44-.57 4.79-1.96 7.53-2.33 3.46-.48 6.94-.55 10.42-.85 1.15-.1 2.59-.5 3.71-.43 1.68.1 2.38.99 3.73 1 2.3 0 5.15-1.45 7.51-1.72 3.03-.34 6.09-.5 9.13-.65 6.4-.32 12.75-.19 19.15-.2 2.92 0 10.7-3.03 12.16.37 2.02-2.58 7.21-2.23 10.11-2.3 5.1-.13 10.15-.62 15.24-.86 4.37-.2 9.24.73 13.53.08 2.36-.36 3.14-1.12 5.82-.78 1.99.25 5.02-.8 6.73-.33-.1-.03 2.13 1.35 1.44 1.4.76-.06.71.48 1.55.24 1.1-.31.6-1.7 2.9-2.2 3.56-.76 8.32.13 12.03-.07 3.6-.2 7.2-.28 10.8-.26 1.65 0 3.7-.39 5.32-.06.79.15 2.47 1.19 3.14 1.08 1.9-.3 2.86-1.61 5.43-1.53 2.9.1 5.52.05 8.42-.17 2.8-.22 3.25-.62 4.63 1.71 1.38 2.32 1.76 5.33-.77 6.9 1.64-.11 3.67 2.1 1.73 3.31-1.2.76-3.6-.94-5.04-.82-1.76.15-3.15 1.08-5.07 1.14-2.02.06-4.08.57-6.07.61-2.08.04-3.65-.89-5.62-.5-1.73.36-1.91 1.78-4 .53-1.04-.62-1.21-2.92-2.63-2.94-1.9-.03-1.14 2.42-2.23 3.56-.29-3.5-3 2.29-4.07-1.96-.99 1.4-4.66 3.38-6.44 2.25-1.62-1.03-1.08-3.37-1.75-5.06-1.13 3.03-4.14 6.17-3.87.66-1.46 1.8-5.42 1.51-4.43 4.67-1.2-.02-1.47-1.73-2.48-1.86-.87-.1-1.55.56-1.69.55.48.04-1.41.67-1.44.68 1.28-.27-3.7-.7-2.86-.7-1.15-.01-2.57.94-3.92.93-1.23 0-2.46-.49-3.67-.62-3.15-.36-2.5.33-4.48 1.32-.73.36-.91.99-1.95.9-.77-.05-1.06-1.05-1.14-1.06-1.09-.1-.29-.47-1.96-.3l-.58.99c-.6.77-1.4.97-2.36.58-2.48.53-10.7 2.84-9.9-1.43l-3.78 1.85c-.55-3.45-7.4 1.12-8.93 1.35-1.96.3-2.14-.46-4-.86-.33-.07-1 1.03-1.79.87-2.04-.4-2.4-.6-2.75-2.82-1.45 2.71-2.66 1.5-5.3 1.95-.57.1-.95 1.24-1.78 1.04-.6-.14-.62-1.24-1.04-1.38-.37-.13-.32-1-.87-1.12-.63-.15-2.78 1.62-3.4 1.9-1.4.6-3.69 1.62-5.05 1.32-1.68-.38-.93-1.62-3.3-1.48-3.76.22-5.33 3.4-7.66-1.62-1.05 2.01-.92 2.56-2.61 3.23-1.25.49-4.42-.03-6.06-.09-7.03-.26-13.94 2.14-20.91 1.51-3.07-.28-5.65-.89-8.74-.39-3.25.53-6.43 1.3-9.73 1.62-1.67.16-5.17.64-6-1.5-.72-1.9 1.98-3.18.47-5.32zm13.78 77.34c-9.12 6.1-16.67 14.42-25.04 21.48-8.4 7.07-15.05 14.93-22.6 22.76-6.98 7.24-13.4 14.09-21.83 19.55-5.34 3.47-10.1 7.73-15.58 11-4.11 2.44-10.33 5.65-8.33-1.82 2.05-7.67 5.85-15.41 9.14-22.57a873.13 873.13 0 0114.46-30.23c1.9-3.75 2.97-7.48 5.99-10.47 3.28-3.25 5.58-7.5 9.18-10.57 15.13-12.91 37.94-2.93 54.61.87zm28.6 4.38c-4.13 2.16-8.76 2.7-13.14 4.13-3.74 1.23-7.21 3.4-11.23 3.56 3.66-2.75 6.8-6.48 10.92-8.56 4.64-2.35 8.85-.64 13.45.87zM628.1 590.3c-15.22-5.13-29.38-12.7-44.2-18.78-2.56-1.05-22.56-7.64-22.15-10.78 14.01-2.56 28.45-6.97 42.5-2.17 12.79 4.38 23.18 14.86 33.08 23.63 2.58 2.3 18.55 12.72 17.12 16.04-.99 2.3-8.68 1.68-10.5 1.2-2.35-.6-3.7-2.03-5.54-3.6-3.08-2.61-6.48-4.25-10.31-5.54zM600 504.54c2.31-2.12 3.7-5.35 5.9-7.31 2.84-2.52 7.42-1.3 10.51.02 9.3 3.93 17.26 10.54 26.5 14.64 10.25 4.54 19.12 10.62 28.36 16.88 8.45 5.72 17.58 10.46 26.2 15.91 8.79 5.57 18.62 9.19 27.53 14.56 9.06 5.46 18.1 10.94 26.8 16.97 15.53 10.73 31.7 21.76 43.2 37.02a163.26 163.26 0 0115.76 25.55c3.94 8.01 8.22 19.13 3.11 27.46-4.9 8-13.26 14.3-20.33 20.27-2.68 2.26-5.23 5.01-8.7 6-4.22 1.18-9.15.85-13.5 1.2-23.22 1.89-44.85.11-67.74-4.04-22.06-4-44.22-6.25-66.46-9.03-12.54-1.57-25.09-3.4-37.46-6.02a211.4 211.4 0 01-15.85-3.93c-4.52-1.33-8.32-4.26-12.97-5.42-19.72-4.92-42.29-6.8-61.82-15.09 17.28-7.18 35.65-11.52 53.36-17.49 18.64-6.28 36.85-11.55 56.5-13.33 10.1-.92 19.15-3.5 28.88-6.2 9.27-2.58 18.94-3.37 28.46-4.52 4.24-.52 16.32.25 17.72-5.28 2.09-8.24-9.78-9.2-14.84-8.45-7.18 1.04-13.1 2.83-18.6-3.05-5.6-6.02-11.06-12.18-16.77-18.12-10.59-11-21.5-23.74-36.47-28.68-18.27-6.03-39.44-.3-57.67 3.12-19.25 3.62-38.46 7.09-57.35 12.35-7.82 2.18-17.9 6.98-26.02 6.2-8-.76-17.06-2.07-24.8-4.37-3.5-1.04-6.37-2.98-9.5-4.78-4.07-2.35-8.53-3.85-12.85-5.68-8.73-3.68-17.25-7.08-26.67-8.53-7.94-1.22-16.36-1.94-24.05.84-7.55 2.73-14.23 8.29-19.5 14.22-5.71 6.45-10.44 13.68-15.13 20.89-2.25 3.45-5 6.47-7.32 9.85-1.96 2.84-3.1 6-5.17 8.76-4.63 6.17-7.78 14.07-10.59 21.25-3.12 7.98-6.58 17.47-5.84 26.14.28 3.28.58 7.63 1.85 10.67 1.61 3.87 3.91 3.77 7.23 5.23 5.7 2.5 7.3 9.43 14.66 8.08 6.9-1.26 12.9-6.95 17.94-11.5 6.57-5.9 12.86-12.14 19.14-18.35 6.45-6.38 12.8-13.45 17.94-20.95 2.02-2.95 3.6-6.28 5.98-8.97 3.04-3.43 6.45-3.84 10.58-5.2 36.1-11.93 72.37-23.43 109.6-31.3 8.92-1.9 17.9-4.33 26.67-6.84 9.3-2.67 14.1.15 21.77 5.22 16.02 10.6 34.96 18.05 52.8 24.97 5.62 2.17 14.56 2.31 18.95 6.6-26.03 3.97-50.83 11.6-75.94 19.2-12.38 3.75-24.9 7-37.32 10.59-12.43 3.58-24.39 8.23-36.64 12.27-12.2 4.03-25.1 5.67-37.42 9.38-12.57 3.79-25.1 6.4-38 8.7-13.04 2.32-25.98 5-39.06 7.08-5.98.96-11.97 1.95-17.9 3.26-5.78 1.28-11.38 4.35-17.2 5.07-26.01 3.18-51.5 10.27-77.41 14.27-19.34 3-52.99 7.17-65.53-12.23-12.61-19.52 2.86-42.28 16.67-56.24a183.86 183.86 0 0128.33-23.09c10.83-7.27 21.24-15.11 32.07-22.37 24.5-16.42 51.08-29.81 77.4-43a841.14 841.14 0 0037.14-20.08c6.1-3.45 9.48 2.12 14.3 5.9 3.8 2.98 10.76 10.31 16.06 6.92l.62 3.67 4.66-2.13c1.05 2.74.92 4.44 3.84 5.88 1.8.88 5.61 1.94 7.32.39l1.05 3.24c1.49-.11 1.78-4.38 2.06-5.38 2.56 3.73 6.1 6.86 10.6 7.91.02-.24-.74-3.31-.7-3.33 1.42-.87 3.21 2.86 3.97 3.66 2.5 2.64 3.99 2.23 6.75.1.2.22 1.14 2.65 1.28 2.61.6-.19 1.73-2.35 1.85-2.55-.17 2.85 5.32 3.42 7.26 2.8l-1.3-2.5c6.75-.9 9.4 6.28 15.88 5.92 4.8-.27.95-1.32 3.67-3.37 2.37-1.8 2.79 2.13 3.02 2 .45-.47.8-1.01 1.05-1.63.88 3.36 7.86 6.38 7.14.85 2.75 1.1 4.7 2.92 7.74 3.3 3.7.48 7.64-.3 11.32-.61 7.94-.67 15.43-2.29 22.6-5.92 4.24-2.16 8.75-4.12 12.74-6.72 3.34-2.18 9.68-8.8 14.12-5.94-1.13-3.36 4.23-.25 4.4-4.58l2.58 1.95c.51-1.13.37-2.92 1.06-3.9.95-1.36 1.42-.56 2.23-1.32.9-.86 1.7-3.14 2.78-3.79 1.12-.67 2.43.13 3.64-.46 1.83-.89 9.72-9.58 8.38-2.13 3.4-1.15.78-2.2 1.2-4.47.86-4.53 2.93-1.27 4.99-.87 3.38.65 3.3-2.15 5.2-4.18 1.71-1.85 4.95-2.68 3.83-5.9 1.27.69 1.54 2.03 1.7 3.33zm-203.62-96.73c-2.66 2.97-4.65 1.7-7.6 1.27-.32-1.06-.86-1.21-1.63-.44-.88.5-1.82.83-2.83.99-2.42.6-4.94.34-7.32 1.25.07-.8.9-2.2.37-3.01-2.5 1.72-4.04 2.82-7.1 2.85-2.49.03-6.85-1.87-8.91.4l-.2-2.65a8.62 8.62 0 00-2.63 2.02c-.14-1.3-.22-2.3-1.08-3.35-1.64 3.37-3.44 3.45-6.63 2.16.45.18-3.19-1.95-3.05-1.36-1.15-4.84 17-4.44 18.9-4.63 4.77-.49 9.53-.76 14.3-1.2 4.51-.42 7.89-1.12 11.01 2.65-1.39-5.45 11.8-5.18 4.4 3.06zm-208.1-84.47c.5 8.24 2.32 16.99-.88 24.91-2.57 6.38-7.7 13.57-13.24 17.73-11.33 8.51-20.93-1.9-22.5-13.35-1.65-11.94 1.61-26.53 11.9-33.9 6.14-4.4 12.09-4.1 19.16-2.65 1.66.35 4.36.21 5.3 1.87.23.38.03 5.38.25 5.39zM338.7 433.06c-1.96.99-4 1.57-5.73 2.9-.6.48-.8 1.54-1.44 1.93-1.16.72-2.81.24-4.02.83-2 .98-3.42 2.38-5.8 3.27-3.52 1.34-6.6 3.17-9.94 4.9-5.55 2.9-11.5 5.38-17.3 7.74-2.93 1.19-11.03 3.5-10.75 7.79-.65.18-1.32-1.26-2.69-1.14-1.88.15-4.36 2.33-6.3 2.86-3.65 1-6.47 1.09-6.47 5.73-1.16-.79-1.46-2.72-3-2.97-1.74-.29-2.47 1.59-3.86 2.17-1.64.69-3.67.03-5.3.76-.7.75-1.5 1.4-2.36 1.96a9 9 0 01-2.63-.08c-3.44.73-6.61 2.03-10.06 2.7-3.36.65-5.66.9-4.25 4.87-3.6.7-4.48-3.11-8.53-1.72-4.98 1.71-9.63 2.94-14.82 3.99-2.65.53-5.41 1.72-8.08 2-1.9.2-3.68-.49-5.55-.27-2.26.25-4.08 1.3-6.41 1.33-2.22.04-4.55-.36-6.72-.75.3.88.69 1.72 1.15 2.53-1.5-.32-2.2-2.13-3.48-2.4-1.34-.28-2.53 1.1-3.65.8-.47-.13-.16-1.6-1-1.88-.78-.25-1.1.05-1.88-.07-.25-.04-3.46-.21-3.98.06-.89.47.01 1.36-.16 1.5-3.02 2.23-3.06 1.02-4.4-1.31-1.98-3.43-4.37-1.27-7.96-1.87-4-.67-7.16 1.1-11.1.85-4.25-.27-9.25-3.45-13-5.31-8.12-4.01-16.04-7.81-22.85-13.88-13.33-11.88-24.17-26.49-30.56-43.2-6.87-17.97-8.17-36.7-7.62-55.77a266.28 266.28 0 013.06-34.24c1.24-7.8 1.5-21.64 10.29-25.19 1.5 18.25-3.26 36.84-.25 54.96.9 5.46 3.1 12.74 7.29 16.78 6.18 5.99 7.63-2.67 8.19-7.44 1.04-8.88 2.97-17.7 4.34-26.54 1.37-8.83 2.34-17.76 4.24-26.5.7-3.19 6.29-26.52 10.4-25.41-.84 16.97-3.05 33.65-3.13 50.69-.04 6.83-.65 14.05.34 20.83.5 3.5 3.69 13.75 9.16 12.9 5.06-.8-.5-8.02-.98-10.8-1.25-7.37.35-16.54 1.51-23.86 2.21-13.84 7.14-28.02 15.2-39.59 7.21-10.36 18.32-20.22 31.7-18.4 5.73.79 10.19 2.2 13.06 7.43 2.26 4.1 11.14 8.76 6 13.89-4.7 4.67-12.27.93-17.48-.19-6.38-1.36-13.21.28-18.54 4.02-9.15 6.4-14.37 17.87-16.07 28.62-2.3 14.49 3.84 52.42 26.42 43.92 15-5.65 26.3-25.97 25.05-41.52-.5-6.23-2.94-18.05 5.67-19.73 11.04-2.15 12.6 10.01 11.48 17.92-1.62 11.5-7.7 22.2-14.66 31.29-6.06 7.92-13.1 12.87-20.4 19.42-2.15 1.94-7.66 6.3-6.74 9.9 1.02 3.94 9.67 5.07 13.14 5.72 17.14 3.2 36.47.25 53.59-1.99 35.17-4.6 69.88-15.95 98.72-36.8 1.17 12.9 2.64 25.76 3.18 38.71.26 6.3.33 12.67 1.05 18.92.44 3.85 2.04 9.22-2.33 11.43zm-97.53 44.97c-1.38.72.1-3.65-.28-2.2 2.07.74 2.16 1.47.28 2.2zm145.9-156.18c2.2-2.42 8.19-8.16 10.09-2.7.7-2.33.8-5.78 3.53-2.64 1.09-3.86 13.08-3.5 16.05-3.66 9.5-.55 19.06-.84 28.53-1.78 19.47-1.94 39.29-.94 58.83-1 4.23-.02 8.45-.25 12.65.36 4.06.6 8.32 2.26 12.45 1.65 3.67-.54 6.08-1.55 9.87-1.12 4.52.52 8.91.89 13.48.87 20.19-.07 40.37.75 60.57.78 3.93 0 8.65-.76 12.34.9 1.37.63 2.87 2.69 3.91 2.92 1.2.25.49-1.61 2.09-.77 2.15 1.13.49 4.6-.93 5.15.85-.33-1.54-.65-1.3-.67-1.13.07-2.1.93-3.3.88-1.86-.08-3.4-1.21-4.9-2.2-.02.4.8 3.1-.14 3.24-.8.12-1.56-2.55-1.64-3.17-4.51 3.99-9.3 1.77-14.9 2.27-3.99.36-12.28 3.01-15.05-1.14a4.23 4.23 0 01-1.06 2.32c-.8 1.2-1.48 1.1-2.06-.3-.2 0-2.13.42-2.17.42-1.36-.11-3.12-.6-4.5-.72-2.14-.18-1.75 1.38-3.45 1.4-.93.02-3.3-1.33-4.93-1.41-2.81-.15-5.68 1.04-8.46.68-1.9-.25-3.63-1.8-5.5-1.86-2.34-.08-3.1 1.7-4.95-.8-.38-.1-.62 1.37-.76 1.4.03-.01-1.77.25-1.98.34-.37.14-1.8.8-2.24.8-.95.02-1.46-.65-2.46-.67-1.65-.03-6.94 1.43-6.8-1.63-5.9 2.19-10.95 1.33-17.01 1.85-2.79.24-4.53-.13-7.18-.64-3.32-.64-5.52.16-8.83.32-3.18.16-4.18-1.19-6.86-2.4-1.06-.48-1.76-1.11-3.06-.85-.74.16-.2 1.4-.43 1.49-1.14.44-1.93-.03-3.5.08-2.88.2-4.03 2.6-7 .34l2.96-.36c-2.84-1.2-6.58-1.81-5.9 2.57-2.41-.34-.32-2-1.5-2.58-1.2-.59-2.53.4-4.03.88-3.95 1.29-7.25.65-11.37.42-4.7-.26-15.65 3.56-19.01-1.4-.1 1.04-1.22 3.96-2.72 3.82-.49-.04.87-3.14 1.03-3.47-.77 1.64-4.29 1.95-6.02 2.8l.58-2.64c-1.6 1.71-2.38.67-4.27 1.24-.83.25-2.03 1.96-2.74 2.06a3.4 3.4 0 00-3.1-1.23 6.26 6.26 0 00-2.49-.12c-3.32.24-6.34 2.08-9.65.82-2.85-1.08-3.96-3.88-5.66.57l-1.35-2.38-1.66 2.58c-2.16-1.41-2.3-2.23-4.78-1.71-.58.23-1.18.2-1.8-.1l-.44 1.3c-.06 1.1-.38 1.47-.97 1.1-.5-.19-.95-.46-1.35-.82-1.65.12-3.75.56-5.52.32-.68-.1-4.95-2.35-5.27-2zm50.39-29.48l.58.89c-2.68 1.41-3.3.6-3.58-2.23 1.3.02 1.53 2.32 3 1.34zm1.65-1.67c1.29.57 2.76 1.69 3.98.2.81 2.37-5.25 5.6-3.98-.2zm8.31 1.05c2.7 1.83-3.78.36-3.76.36 1.16-1.07 2.42-1.2 3.76-.36zm23.24-10.18c.93 4.67 3.49 4.54 7.61 2.37 6.02-3.17 7.03-8.36 7.45-14.56.4-5.95 1.13-8.25 7.26-7 4.28.86 7.9.13 12.21.01 4.6-.13 6.23.58 6.6 5.31.37 4.75 1.21 8.35 4.65 11.96 3.5 3.66 8.17 5.86 12.71 7.9 2.34 1.06 4.54 2.2 7.12 2.43 1 .09 6.22-.57 6.33 1.08.08 1.24-7.14 4.74-7.9 5.16a54.72 54.72 0 01-10.36 4.56c-8.42 2.54-17.35 2.69-26.07 2.53-14.06-.25-33.5-6.2-41.9-18.67l14.3-3.08zm-1.26-40.5c-2.22-1.86-3.66-4.68-5.51-6.9-.93-1.1-1.62-1.46-2.5-2.02-.94-.59-1.46.25-2.24-1.14-2.02-3.57 4.2-8.6-2.4-9.97-2.22-.46-7.59 1.3-8.24-1.89-.92-4.52 7.7-4.81 9.73-7.1 4.03-4.56 1.3-12.29 3.75-17.55 2.33-4.98 8.33-5.86 13.07-7.36 6.6-2.08 13.28-3.3 19.99-4.96 4.68-1.17 12.47-5.85 16.82-1.71-6.71 1.49-2.81 3.82 1.66 5.14 5.06 1.5 10.43 2.08 15.68 2.5 5.4.43 10.9.51 16.24-.57 4.93-1 10.45-5.28 15.62-4.18-2.87 4.99-11.42 7.72-16.62 9.02-2.65.67-4.35.46-3.99 3.76.35 3.2 3.13 6.41 3.76 9.75.83 4.4.1 8.46-1.47 12.61-1.54 4.09-1.9 4.62-.55 8.52 2.1 6.07-2.42 12.79-6.6 17.2-16.9 17.84-49.25 11.08-66.2-3.14zm42.95-106.59c.07.18.01.11 0 0zm5.26 45.01c-.7.52-4.73 1.62-4.56.05.22-2.12 3.86-1.35 4.56-.05zm9.2-42.7c-.94-.7-3.6-.4-1.66-3.08l1.66 3.09zm-63.65-16.9c1.2-3.14 2.54-6.06 3.08-9.4.34-2.06-.33-4.4 2.55-4.73-3.67-1.6-3.7-7.9-3.92-11.18-.3-4.5-1.72-10.53.26-14.72 2.03-4.3 4.77-4.23 5.6.9.32 2-.92 2.65-1.15 4.05-.46 2.76.46 2.16 2.24.05.74 2.14 1.02 5.36 4.02 5.23-.2-.58-1.35-1.86-.97-2.58.6-1.1 3.47.58 3.84.84 2.63 1.84 3.2 3.52 1.32 5.84 2.6.28.42 2.55 2.1 3.14 2.55.9.84-3.38.56-4.13 1.56.6 2.08 1.3 3.06 2.53.58.85 1.1 1.73 1.58 2.64.53 1.66 1.62 2.08 3.28 1.25 3.3 1.04 7.88.88 10.85 2.7 1.35.82 1.84 2.64 2.97 3.33 1.28.77 2.99.42 4.36.9-.5 1.14-.1 1.76 1.21 1.86 1.02.09 2 .32 2.96.68a9.02 9.02 0 012.32-1.27c.57 1 1.36 1.24 2.39.74 3.05.57 4.52 1.73 6.46 3.45 1.74 1.55.33 1.68 2.23 1.54.77-.05 2.12-1.35 3.87-1.1 1 .2 1.98.5 2.92.93 1.01.87 2.09.98 3.23.33 1.85.9 2.03 2.5 4.28 2.73 2.5.24 1.7-2.87 3.4 1.51 2.31-4.64 3.16 2.76 5.54 3.36 2.47.62 2.73-1.38 4.84.8.63.66.6 1.74 1.31 2.44 1.16 1.13 2.74.9 3.75 2.45-.56-.86.13 3.07.12 2.94.16 1.73-1.38 3.68 1.77 3.53-.03.18-1.55 2.4-1.84 2.14a8.3 8.3 0 01-.18-.77c-.34.15-.5 2.26-.43 2.63.27.04.38-.16.33-.6-.52 1.63.26 2.66-.74 4.2-.63.99-2.38 1.73-3.3 2.33a196.02 196.02 0 00-6.62 4.5c-5.1 3.65-10.8 8.05-17.21 8.8 3.22-3.16 21.75-15.13 12.46-18.56a30.46 30.46 0 00-6.67-1.38c-2.24-.16-4.56 1.12-7.04.32-2.98-.97-1.86-3.77-3.68-4.78-3.87-2.13-2.96 2.89-4.18 4.2-1.28-1.34-1-2-3.02-2.11-2.06-.13-2.54 1.77-4.94.59-3.3-1.63-1.55-4.88-6.23-4.95.08-.71.75-2.7-.14-3.26-1.2 1.56-.27 3.3-1.39 4.81a5.41 5.41 0 01-2.66 1.6c-2.07.57-2.37 1.66-2.03-1.46-1.54 2.77-6.25 1.63-9.06 1.35a64.36 64.36 0 01-13.77-2.78c-4.05-1.35-6.2-3.67-9.54-5.79-1.26-.8-1.86-.5-3.67-1-1.79-.48-3.52-1.43-2.68-3.62zm9.62-49.06c.69-.41 1.18 5.78.35 6.93-1.53-2.41-4.24-5.96-.35-6.93zm2.2-2.47c2.21-2 .67 3.18.27 4.04l-2.46-1.57c1.04-.64 1.3-1.67 2.19-2.47zm83.52-8.34c20.45 4.3 40.71 12.32 57.12 25.52 14.94 12.03 25.48 29.09 31.4 47.24 6.13 18.84 4.07 39.74-10.53 54.15-7.7 7.6-17.85 12.18-27.53 16.65-4.64 2.14-9.41 3.93-14.07 6.02-3.34 1.5-7.43 3.9-11.24 3.5 1.95-2.06 4.77-2.1 7.13-3.35 2.84-1.52 5.17-4.42 7.62-6.5 2.44-2.06 7.84-8.55 11.59-6.98-.52-3.46 3.42-5.06 5.2-7.34 1.87-2.41 2-5.24 5.46-6.02-3.71-2.91-2.57-8.4-1.77-12.35 1.04-5.06 1.51-9.71 1.92-14.86.74-9.29 1.33-21.12-3.8-29.28-1.67-2.65-3.79-5.09-5.27-7.84-1.8-3.32-1.4-6.24-1.4-9.88-3.27 2.2-3.96-2.28-5.34-4.47-1.04-1.64-2.4-2.56-2.74-4.62-.24-1.5 1.39-1.75.5-3.33-1.1.83-1.54 2.11-2.1 3.3-1-.4.19-1.81-.4-2.27 0-.01-1.96-.86-1.86-.74-1.26-1.59-1.66-4.23-2.28-6.12-2.3 1.16-1.87 1.03-4.43-.92-.45-.34-2.7-1.92-2.92-2.43-1-2.4.75-.98.26-2.47-1.4-4.29-9.24-3.48-9.86-9.9-3.82 2.42-5.28-1.01-7.54-3.46-2.31-2.5-6.2-3.47-5.99-7.44l-3.6 1.23c.62-3.67-4.83-3.43-6.8-5.3 1.1.02 2.18.1 3.27.26zm3.11 227.1c1.9-1.7 1.32.56 2.54.3 1.04-.21 1.25-1 2.25-1.24 4.12-1 10.28.25 14.62.04 5.01-.25 13.62.79 16.01 6.66 1.44 3.54-.76 2.34-3.18 2.07-1.88-.2-3.55.18-5.4.16a8.1 8.1 0 01-2.75-.04c-.45-.3-.71-.7-.8-1.24-2.58-.4-5.33 1.14-8.2 1.22-3.81.1-7.21-.64-10.12-3.22-1.15 1.72-1.94 2.58-4.01 2.77-.06 0-2.09-.81-2.4-.9-.41-.1-1.47.77-2.27.52 1.42-2.26 1.63-5.24 3.71-7.1zm261.07 20.44c.67-2.35 1.23-4.72 1.85-7.09 9.44 10.74 17.7 25.12 21.4 38.9 2.42 8.95 6.18 25.17-5.33 29.79-9.37 3.76-14.6-9.72-16.97-16.36-5.24-14.66-5.24-30.32-.95-45.24zm-422.14-168.3c.12-.03-6.1 3.6-4.06.66.83-1.18 3.95-2 5.34-2l-1.28 1.34zm-6 1.53c-.71.6-1.44 1.2-2.18 1.8l-2.11-3.35c1.39-.58 7.3-1.02 4.3 1.55zm-4.38 112.64c-1.3-.89-2.34-.42-2.73 1.06 0-1.47.77-4.9 1.95-5.3.76-.25-2.54-4.15-1.61-5.18 2.36 1.36.94 2.65 1.63 4.4.32.78 1.25 1.52 1.46 2.13.34 1.02 1.75 4.55-.7 2.89zm-6.39-8.78c-1.33.34 1 2.54 1 3.52 0 .73-.88 1.3-1.25 2.3-.8 2.19.57 3.66-1.67 5.33 0-4.78-3.21-17.46 2.96-19.8-3.01-2.36-.54-5.1 1.82-2.26 2.27 2.73.82 9.97-2.86 10.9zm-3.21-18.88c-1.22-4.3-4.87-5.8-9.04-5.55.16-2.2 1.83-5.38 3.03-1.4.5-1.18.84-2.71 1.97-3.49 1.9 5.97 11.4 9.26 5.49 15.73l-1.45-5.3zm-11.03-5.23c-21.96 1.6-52.8 6.15-70.38-10.69-11.47-10.98-10.85-28.07-1.59-40.27 5.29-6.96 12.5-11.86 19.75-16.53 2.8-1.8 5.16-3 8.23-4.03.5-.05.97.06 1.4.33.18-.74.6-1.29 1.26-1.65 1.19-.63 2.88-.86 3.56-2.17a42.2 42.2 0 00-1.37 7.58l-1.78-2.07c-.49 4.66-5.35 1.84-8.25 2.42 1.91 2.64 3.28 3.6 3.44 7.1-1.42-2.63-4.4-4.35-7.16-5.2 1.5 4.44 2.56 7.08 1.05 11.95-1.82-1.04-1.95-3.55-4.16-4.15-.59 2.9-.7 6.13-1.44 8.95-5.68-2.59-5.12 4.38-2.84 7.83 1.2 1.84 1.8 3.96 2.88 5.72 2.66 4.32.64-2.14 3.59-1.83-.66 4.55-.9 5 2.44 8.35 3.26 3.25 4.94 7.76 8.43 10.82 1-1.29-.58-2.63-.72-3.87 3.24.55 4.75 3.8 7.87.92 1.36 2.64 2.83 5.56 6.08 6.1-2.15-4.09 4.13-1.31 5.74-.73 1.22.44 3.4.79 3.88.96 2.65.95.83-.76 2.44 2.38 2.37-.72 3.26-2.68 6.09-1.02 2.3 1.35 2.3 3.65 2.83 6.02.54-1.55 1.1-3.1 1.7-4.62.62.26 3.2 3.1 2.93 3.12 6.06-.3 5.84 3.47 4.1 8.28zm-30.84-77.12c1.22-.85 2.7.28 4.07-.02 1.89-.42 2.96-2.04 5.08-2.22-.6 1.88-1.7 1.7-2.63 3.18-.32.5-.15 1.7-.43 2-2.37 2.42-3.19.44-5.6-1.4.2 2.22.63 2.92-1.46 3.52-1.88.53-5-1.45-5.95-2.97.8-1.6 5.46-1.07 6.92-2.09zm15.07-3.46c2.05.2-.42 6.25-3.36.38a16.5 16.5 0 013.36-.38zm10.55-1.17c3.24-.66 14.03-3.73 15.23 1.3.21-.12 1.01-2.97 1.39-2.62 1.5 1.39 1.66 3.23 1.54 5.16-1.8-3.76-1.16-.45-2.38-.71-.32-.07-.81.53-1.62.28-1.06-.32-1.82-2.58-2.5-3.34-1.1 1.59-2.49 3.64-4.72 3.5-1.58-.1-4.13-4.17-2.08.29-1.2-.4-2.6-1.3-3.94-1.12-1.5.2-2.27 1.68-3.68 1.92-3.11.53-3.58-2.47-5.6-4.1 2.78-.16 5.6 0 8.36-.56zm19.57-.05c.23-1.03 3.06-1.45 3.78-1.12 1.76.8 1.1 1.85.79 3.61l-3.92-1.85c1.95 3.13-1.58 3.59-.65-.64zm547.94 183.8c-.23-7.52-.45-15.17-2.36-22.5-1.33-5.12-4.6-14.3-10.8-15.2-9.35-1.33-14.53 17.14-17.15 23.49-.53-7.47-.07-15.42-2.89-22.5-2.26-5.69-7.96-11.06-12.88-4.69-4.37 5.68-5.2 14.06-6.36 20.89-1.49 8.85-2.38 17.77-3.47 26.67-4.27-8.25-5.02-17.7-8.4-26.27-3.18-8.1-8.2-15.83-13.02-23.02-3.94-5.88-8.74-11.41-14.91-15-5.38-3.13-14.78-6.52-19.9-1.32-4.28 4.33-3.6 10.13-3.39 15.6.1 2.44.49 4.11-1.66 5.34-1.05.6-2.7.29-3.85.61-1.87.52-3.3 1.4-4.87 2.58-11.06 8.21-16.15 23.02-17.73 36.22-2 16.73 4.52 31.07 10.14 46.38.89 2.44 3.73 7.61 3.34 10.33-.43 2.99-4.18 3.06-6.7 3.13-7.64.19-15.61-.38-23.2-1.1-18.09-1.69-36.15-10.39-52.34-18.16-2.95-1.42-7.13-2.23-9.54-4.46-2.27-2.1-2.87-5.47-4.82-7.88-4.8-5.9-7.86-10.94-14.93-14.51-7.2-3.64-14.55-7-21.57-10.98-8.69-4.92-16.72-11.16-25.04-16.67-15.47-10.25-30.83-21.48-47.24-30.2-7.62-4.04-16.13-4.7-24.05-8.01-7.7-3.23-17.16-3.23-25.2-1.2-3.92 1-6.58 3.35-10.19 4.89-4.22 1.8-7.66-.19-11.38-2.34-5.67-3.28-11.3-8.63-3.22-12.18 2.75-1.2 6.18-1.65 8.58-3.54 2.55-2.02 4.6-5.73 6.68-8.26 4.61-5.6 7.37-12.06 14.12-15.55 7.47-3.86 16.33-4.9 24.3-7.43 8.62-2.73 17.07-5.97 25.54-9.16 15.26-5.75 31.12-11.95 42.09-24.6 9.46-10.9 13.58-24.98 13.2-39.28-.78-29.23-16.44-58.9-38.91-77.18-27.55-22.41-62.6-29.88-97.4-29.5-16.34.2-35.83 2.33-49.46 12.25-11.77 8.57-13.73 23.57-11.98 37.1.72 5.49 3.14 12.74-.73 17.58-2.17 2.7-6.06 3.38-8.98 5.06-3.67 2.12-6.9 4.16-11.06 5.28-17.65 4.77-36.25 3.1-54.3 2.84-30.06-.44-60.88 7.7-83.31 28.89-18.12 17.1-23.55 49.37-1.46 66.05 17.85 13.47 45.85 11.99 66.9 9.64 6.52-.73 11-1.8 11.02 6.2.02 8.72-1.43 17.83.8 26.4 3.5 13.48 16.46 13.8 27.92 10.9 6.04-1.54 11.89-3.84 17.63-6.25 8.42-3.54 16.13-8.75 24.45-12.28 5.64-2.4 9.86 5.35 14.86-.02.92-.99 1.1-2.47 2.49-2.97 2.18-.8 5.84 1.99 7.76 2.87 2.87 1.32 5.76 2.3 6.9 5.47 1.08 2.97.6 7.7-.42 10.64-2.23 6.38-8.24 5.12-13.73 4.69-9.56-.74-19.06-2.32-28.63-2.99-8.58-.59-16.61 1.97-24.01 6.2-15.55 8.9-28.26 23.03-41.74 34.65-6.94 5.98-13.64 12.44-21.19 17.65-3.28 2.27-6.83 4.35-9.68 7.17-2.83 2.79-3.14 5.33-4.1 9.04-1.73 6.62-10.28 9.85-15.63 13.34-7.56 4.94-15.58 8.42-24.06 11.45-17.96 6.41-36.05 10.9-54.83 14.2-9.19 1.63-18.3 2.69-27.58 3.57-8 .75-16.5 3.21-24.5 1.25 2.3-3.74 6.38-5.98 9.56-8.86a70.42 70.42 0 0010.67-12.7c6.03-8.89 10.26-18.43 11.24-29.22.87-9.7-.13-21.31-5.99-29.51-2.02-2.84-6.03-3.6-7.84-6.16-1.8-2.53-1.1-6.9-2.1-9.86-2.5-7.52-9.95-16.84-16.5-21.21-7.12-4.74-17.52-6.48-25.73-4.01-15.22 4.57-24.56 20.84-31.53 33.98-3.8-8 2.57-19.88-4.86-26.43-6.27-5.53-11.24 5.18-13.34 9.76-9.83 21.5-12.07 44.32-16.2 67.34-1.67-1.66-.81-5.91-.65-7.89.3-3.67.26-7.28.27-10.97.02-9.33 1.76-18.7.96-28.02-.46-5.39-2.18-16.75-10-14.96-6.64 1.52-10.8 10.85-12.89 16.56-3 8.23-3.7 16.38-3.51 25.08.2 9.6-1.63 19.06-2.07 28.65-.86 18.64-.01 37.11 5.34 55.1 8.75 29.45 28.89 53.93 55.76 68.7 14.8 8.15 31.23 13.3 48.11 14.4 9.16.6 17.99-.48 27.06-1.43 8.95-.93 17.95-1.36 26.9-2.46 19.9-2.44 39.3-8.74 57.38-17.22 9.53-4.46 18.48-9.94 27.85-14.7 3.76-1.91 6.3-4.3 9.5-6.96 3.19-2.63 4.07-2.83 7.68-2.83-1.06-2.84 2.04-3.72 3.42-5.51l-.24 2.61c1.05-2.28 2.03-2.26 2.94.07.9-2.6 1.55-5.28 2.63-7.81 4.13 2.09 3.78 7.05 9.3 3.43 4.55-2.99 8.73-6.5 13.37-9.43 10.56-6.67 19.66-15.34 30.25-21.93 0 6.42.45 12.89-.4 19.27-.82 6.07-3.09 11.75-4.89 17.56-3.32 10.72-3.55 22.18-7.24 32.8-1.52 4.4-5.49 8.07-6.63 12.35-1.16 4.36 1.52 7.86-2.97 10.73-3.17 2.02-7.13 2.87-10.64 4.1-5.35 1.86-10.43 4.49-15.63 6.72-24.43 10.47-48.26 21.13-70.9 35.2-21.48 13.36-43.28 27.16-63.02 43.02-17.12 13.77-34.43 31.57-38.6 54.02-4.05 21.79 6.73 45.17 28.37 52.34 11.25 3.73 23.97 3.27 35.7 3.43 12.6.18 25.96-2.86 38.36-5.06 13.1-2.32 25.96-5.96 39.1-8.03 12.59-2 24.14-6.44 36.54-9.18 13.2-2.92 26.73-4.5 40-7.13 5.98-1.18 11.83-2.92 17.82-4.02 6.56-1.2 13.19-1.65 19.69-3.23 12.6-3.08 24.66-8.04 37.3-10.9 5.7-1.3 11.3-3.02 16.99-4.23 5.24-1.1 9.32-4.05 14.57-1.63 4.24 1.95 7.63 5.3 11.64 7.64 5.2 3.03 10.7 5.74 16.13 8.34 10.9 5.24 22.22 8.86 33.63 12.78 11.97 4.13 23.74 8.84 36.15 11.57 12.73 2.8 25.7 3.57 38.52 5.78 26.24 4.53 52.25 6.56 78.89 6.72 13.46.09 26.92-1.5 40.35-1.32 11.9.17 22.23 2.85 33.1-3.47 17.38-10.1 37.53-25.32 37.1-47.42-.39-20.01-12.4-39.14-23.65-54.92-13.68-19.17-33.18-32.67-52.29-45.9-20.37-14.09-43.24-23.83-64.65-36.13-10.95-6.3-21.05-13.06-32.93-17.53-5.68-2.13-11.21-4.6-16.82-6.9-4.51-1.85-11.03-2.88-14.9-5.94-2.4-1.92-2.63-4.81-3.27-7.66-1.4-6.3-3.62-12.27-5.77-18.34a188.14 188.14 0 01-8.68-35.97c-1.7-11.72-5.47-23.91-3.51-35.83 12.83 12.42 26.03 24.36 39.16 36.45 4.93 4.53 9.76 9.16 14.7 13.66 3.72 3.38 8.37 8.4 13.55 9.4 6.61 1.29 4.2-6.03 8.74-7.16 2.77-.7 11.14 6.36 13.34 7.75 13.9 8.83 29.3 14.43 44.6 20.44 16.04 6.3 32.54 11.9 49.8 13.48 15.95 1.47 32.25-.41 47.64-4.75 30.64-8.66 53.19-29.18 69.74-55.79 18.85-30.31 32.57-65.83 31.46-102.02z" clip-rule="evenodd"/><path fill="#000" fill-rule="evenodd" d="M463.52 256.44l-.05.12c.06-.05.07-.08.05-.12z" clip-rule="evenodd"/><path fill="#000" fill-rule="evenodd" d="M465 256.84a10.8 10.8 0 00-.74-2.84c-1.02 1.6-1.93 2.3-.6 4l1.34-1.16zM535.66 486.68c1.13-1.2-.85-1.66-1.6-1.68.07 1.3-.57 4.4 1.2 5a3.53 3.53 0 01.4-3.32zM505.73 234.04c-1.95 3.77 2.35 4.94 4.85 3.12 1.87-1.37 2.98-4.86 3.3-7.1.99-7.23-4.08-14.12-6.6-20.55-.65-1.66-1.55-7.35-3.65-7.5-2.41-.19-2.6 5.06-2.62 6.41-.1 4.08.98 8.24 2.25 12.09 1.36 4.15 4.74 9.14 2.47 13.53zM515 218.94c7.5 6.67 13.5-4.44 12.97-11.02-.13-1.63-1.23-7.63-4.32-5.45-1.55 1.1-.23 4.67-.97 6.24-3.58 7.6-7.04-4.19-9.45-5.12-2.94-1.12-3.23 2.74-3.23 4.8 0 4.1 1.96 7.84 5 10.55zM487.8 219.98c1.76-2.78 3.93-6.51 4.17-9.84.37-5.18-2.65-4.75-5.13-1.14-1.75 2.56-3.07 6.88-6.94 5.8-4.78-1.32-3.32-7.75-6-10.8-6.75 9.08 6.04 28.35 13.9 15.98zM497.92 247.75c2.8.6 10.08.38 7.56-3.9-3.19-5.39-13.78 2.56-7.56 3.9zM595.83 87c.51-1.52-.19-1.8-1.41-3-1.15 1.07.32 2.19 1.41 3zM647.96 362.95c1.84.3 2.44-.68 1.78-2.93-2.9-.19-3.5.79-1.78 2.93zM547.28 127.55c2.03.93 1.25 2.84 1.22 4.45 1.04-1.14 3.16-3.22 2.3-4.86-1.33-2.52-4.8-.17-3.52.41zM478 95.81l-.93-1.81c-1.26 1.01-3.21 3.7-1.2 5 .82-1 1.53-2.06 2.13-3.19zM502.4 113.6c2.53 1.99 1.32-4.1 1.24-4.6-.37.71-2.52 3.6-1.24 4.6zM501 110.51l-.58-1.51c-1.03.95-2.28 2.89-.59 4 .47-.78.86-1.6 1.17-2.49zM517.07 131.43l.62.57c.83-1.68-.11-2.95-1.69-3a4.3 4.3 0 001.07 2.43zM449.26 320.83c1-.68 1.92-1.46 2.74-2.33-2.97-1.82-1.2 2.12-4.77-.3-.77 1.06.5 3.45 2.03 2.63zM574.1 486c1.13-1.73 1.34-1.68-.2-3-1.3 2.14-1.16 1.6.2 3zM338 210.08l1.85 1.92c.28-.84 1.85-3.21.78-4l-2.63 2.08zM359.87 216.42c-.98-.16-3.33-.88-3.87.04 1.44 1.17 4.68.1 3.87-.04zM178.7 128.78l1.69-3.95c.69 2.3.88 3.43-1.68 3.95zm.75 6.07c-1.2.22-.73-3.59-.73-4.25 2.1 1.19.36 2.6.73 4.25zm-1.89-10.98c1.04-.6 2.07-1.22 3.1-1.83-1.44 2.67-.87 1-.28 2.78a2.55 2.55 0 01-2.82-.95zm-6.13 20.86c-3.87 14.06-16.18 25.15-29.19 30.9-7.47 3.3-14.81 4.12-22.88 3.75-3.11-.14-6.78-1.15-9.77-.96-2.3.14-2.2.24-4.11 2.2-.85-1.56-.24-2.65-1.93-3.56-2.12-1.13-3 .19-4.04 1.75-1.38-1.42-1.94-2.16-3.72-3 .06.02-1.7-.05-1.63-.03-.32-.1-2.23-1.32-2.83-1.55-2.46-.92-5.3-1.3-7.57-2.62-1.98-1.16-3.61-4.4-5.88-1.9 0-4.17-5.61-5.9-8.24-8.08-4.11-3.4-7.38-8.45-9.43-13.34-2.18-5.2-2.9-10.2-3.93-15.55-.72-3.75-5.4-9.17-2.58-12.95.67 1.58.35 3.2 1.46 4.64 1-1.92 1.55-4.08 2-6.19.23-1.03 1.51-4.06 1.37-4.96-.3-1.84-2.58-1.94-1.32-4.2 2.63 2.85 4.74-2.16 2.76-4.16-.98 1.1-1.34 2.36-1.79 3.73-2.58-5.2 4.56-3.53 3-8.23 2.6-.5 4.1-1.16 5.09-3.73 1.1-2.86.3-3.49 2.8-5.38.85-.65 3.28-1.58 3.73-2.65.86-2.07-1.33-2.68.59-4.62.64 1.14 3.17 3.39 4.55 1.24.28-.42-.88-.73-.04-1.7 1.26-1.47 2.66-2.9 4.78-2.59-1.68-4.2 9.04-4.52 11.79-5.51 2.75-1 5.09-1.65 8-1.88 2.92-.23 3.06-1.08 5.53-2.84.21 2.52.81 1.96 2.6 2.4.43-.73.87-.81 1.32-.24.45.42 1 .62 1.64.6.98.05 2.1-.08 3.12-.06 2.41.05 4.9-.15 7.26-.1.61-.1 1.18-.31 1.72-.64l.67 1.27c1.25.15 1.34 1.72 2.89 0 .45 2.19 1.76 1.05 3.15 1.65 1.26.54 1.46 1.4 2.62 2 .77.62 1.6.7 2.47.25.83.62 1.68 1.22 2.54 1.8 1.59.9 3.46 1.45 5.13 2.15a110 110 0 013.3 1.43c.04 1.33.63 1.8 1.78 1.4 1.04.87 1.34.84 2.35 2.32a63.88 63.88 0 007.2 8.98c12.57 13.06 16.43 31.52 11.68 48.76zm3.86-55.54c-5.67-7.6-13.7-16.29-20.91-21.08-3.66-2.44-8.79-6.8-13.26-8.09-1.06-.3-2.16-.32-3.2-.64-.8-.25-1.24-1.08-2.16-1.22-.64-.1-.71 1.33-1.4 1.2-1.42-.28-2.33-1.7-3.33-2.58-2.16 3.73-3.34-2.54-6.52 1.67-3.78-5.93-12.66-4.63-18.7-4.33-1.78.09-2.62.72-4.2 1.2-1.49.44-1.63.32-3.25.31-4.01-.03-7.58.47-11.3 2.24-6.23 2.96-11.95 7.58-17.88 11.15-6.62 4-12.6 9.07-17.66 14.9-18.31 21.11-23.2 51.92-8.6 76.39 23.19 38.86 83.02 43.01 116.92 16.65 26.2-20.38 36.16-60.03 15.45-87.77zM224.71 196.11c-5.35-1.91-14.3-1.5-15.63 5.41a9.39 9.39 0 002.53 8.06c2.31 2.43 6 2.66 5.8-1.58-.13-2.94-2.92-5.5 1.99-6.08 3.06-.37 7.58 1.92 7.73 5.3.35 7.6-12.83 8.2-17.7 6.89-9.63-2.62-7.01-12.71-.4-17.32 1.72-1.2 6.63-3.03 6.85-5.5.3-3.28-3.76-2.6-5.75-2.18-14.61 3.18-17.8 27.66-2.53 32.28 6.94 2.1 16.7-.07 20.88-6.35 3.92-5.89 3.97-16.16-3.77-18.93zM30.96 22.82l-13.7 6.6c-1.52-3.24-4.07-12.06-7.9-13.2-6.2-1.82-2.25 7.8-1.18 10 .88 1.81 2.92 4.61 2.42 6.77-.66 2.9-4.75 3.93-6.9 5.42-5.3 3.71-5.26 11.5 2.42 8.2 4.35-1.87 9.73-7.05 13.06-1.17 1.54 2.71 5.18 17.86 8.99 7.95 2.35-6.13-8.98-12.5-3.4-17.7 1.8-1.67 3.91-1.8 5.7-2.77 4.35-2.32 1.9-6.6.49-10.1zM875.2 99.42c14.34 10.19 30.78 17.14 45.76 26.3 3.75 2.3 15.43 7.07 15.31 11.33-.06 2.48-3.57 5.6-5.1 7.33a174.7 174.7 0 00-7.55 9.07c-11.12 14.31-21.6 28.76-33.65 42.36-1.81 2.04-7.28 11.8-9.05 6.96-.8-2.2-.14-4.67-2.22-6.72-1.08-1.06-5.22-1.64-4.01-3.9l2.41 1.08c-.62-1.8-.58-3.8-1.51-5.5-.59-1.06-1.73-1.57-2.12-2.76-.55-1.66.38-3.58.22-5.29-.15-1.7-1.03-3.3-1.56-4.9-3.12-9.52-4.24-19.1-5.83-28.91-1.58-9.7-4.04-19.11-5-28.93a498.28 498.28 0 00-3.95-31c2.98.43 5.27 3.66 7.38 5.5 3.3 2.87 6.9 5.45 10.48 7.98zM863.98 199.8a5.68 5.68 0 01-1.6-1.98c7.02-3.48 2.78 2.46 1.6 1.98zm-4.27-7.42c-3.06.84-5.26 1.01-7.62-.25-.23-.12.03-1.04-.37-1.22-.36-.17-.9.03-1.2-.12-1.03-.52-2.83.62-3-1.38 3.9-1.2 7.75-3.4 11.88-3.77 5.73-.52 5.47 5.32.3 6.74zm-13.42-11.54c-4.17.98-7.62 3.26-12.06 2.66-4.16-.56-7.78-2.72-11.07-5.2 8.22-2.33 16.85-2.75 25.06-5 2.68-.74 6.2-2.67 9.07-1.9 3.2.87 3.4 3.87 4.37 6.6-5.13.92-10.3 1.65-15.37 2.84zm-26.13-11.59c-4.01.96-8.12 3.06-11.47-.56-.54-.58-1.02 0-.95-1.8.06-1.9 1.79-3.12 3.27-3.78 3.48-1.57 8.36-.56 12.06-.8 5.9-.36 11.9-1.58 17.74-2.53 4.04-.65 8.2-2.1 12.34-1.81 3.19.22 7.03 2.93 2.39 4.91-4.24 1.81-10.58 1.53-15.16 2.32a314.38 314.38 0 00-20.22 4.06zm-3.92-18.88l.78.8c-.04-.01 1.54-1.3 1.96-1.33 2.03-.18 4.08-.04 6.12-.15 4.7-.27 9.43-1.09 14.04-1.99 3.76-.73 7.58-2 11.45-1.68 3.35.27 3.7.96 3.92 4.2-8.55 0-17.35-.19-25.75 1.62-5.47 1.18-11.5 4.68-14.23-1.64l1.71.17zm5.34-13.68c2.12 1.62 7.9-1.07 10.44-1.34 2.76-.29 5.35-.6 8.03-1.28 2.37-.6 10.2-3.65 12.03-.74 2.78 4.46-8.5 5.28-10.3 5.5-7.5.93-15.28 1.75-22.58 3.72l2.38-5.86zm10.3-15.16c.54 2.07 17.51-5.54 17.82-.01.24 4.24-16.79 6.35-19.85 5.98.72-1.95 2.63-3.7 2.03-5.97zm5.7-12.96c.35-4.17.91-4.14 4.25-4.53 2.54-.3 6.04-1.8 5.38 2.74-.57 3.89-10 5.98-9.64 1.79zm6.06-14.32c.8-2.23 2.6.77 2.65 1.9.1 3.03-2.2 2.38-4.4 2.38.61-1.41 1.2-2.84 1.75-4.28zm27.92-16.77c-.44-.54-2.97-.75-3.69-1.01-1.77-.65-1.52-2.03-3.78-.67-.11-.11.1-1.14-.02-1.18-.06-.03-1.65-.63-2.16-.96a28.26 28.26 0 01-3.5-2.57c-1.22-1.06-2.44-2.6-3.82-3.45-.59-.35-1.07-.86-1.77-.97-1.83-.28-1.3 1-2.9 1.25-1 .16-1.7-1-3-.5-1.1.43-1.75 1.99-2.25 2.92-1.8 3.38-3.2 7.02-4.96 10.44-9.03 17.47-19.29 34.28-28.03 51.92-4.2 8.5-8.6 17.05-11.57 26.07-2.13 6.52-6.96 16.03-2.8 22.54 3.01 4.73 9.06 6.77 13.88 9.06 7.26 3.44 13.95 7.93 21.28 11.27a533.55 533.55 0 0125.78 12.58c3.63 1.89 6.91 4.62 10.54 6.41 2.22 1.1 5.64-.77 6.36 1.74 2.78-3.36 7.28-1.12 10.5-3.49 1.89-1.4 3.27-4.14 4.85-5.86 2.36-2.57 4.93-4.96 7.34-7.49a501.97 501.97 0 0027.15-31.3c8.32-10.3 18.05-20.03 25.08-31.3 2.8-4.49 3.3-9.18 1.46-14.13-1.35-3.6-4.59-9.05-9.22-6.66 1.76-2.92-5.02-6.03-7.07-6.6-.03-.01-.44 2.23-1.01 2.17.2.02-1.72-4.96-2.57-5.6a83.16 83.16 0 00-8.3-5.68c-2.52-1.44-5.18-2.15-7.61-3.76-2.95-1.94-5.66-4.25-8.63-6.18-2.86-1.87-6.04-4.07-9.2-5.36-2.75-1.11-5.21-1.33-7.68-3.15a45.21 45.21 0 00-9.23-5.35c-3.05-1.34-7.27-2.52-9.45-5.15zM739.57 198.77c-.65 1.55-6.73 1.03-6.87-.8-.2-2.74 8-1.9 6.87.8zm6.45-1.02c3.45.28 9.11 2.63 12.43 1.21 5.07-2.16-.25-5.47-2.97-6.46-2.77-1-6.89-.47-8.31-3.36-1.07-2.18 1.57-8.25-1.7-7.27-3.45 1.02-2.45 9.72-7.85 6.79-2.57-1.4-1.52-9.92-5.84-5.57-1.18 1.19-1.28 3.38-2.85 4.26-1.6.91-3.6-.03-5.28.05-4.46.2-5.88 4.38-1.36 6.03 1.67.62 7.98 1.36 4.16 4.1-2.4 1.72-7.76-1.9-9.82 1.1-2.84 4.12 4.77 4.22 6.81 5.45 3.46 2.08.6 6.96.88 10.43.42 5.3 3.5 4.19 4.62-.3.95-3.8-.23-9.28 5.51-7.77 9.35 2.46-5.2 14.33 1.65 17.36 4.37 1.94 4.99-8.53 5.32-10.33 1.26-6.65 5-5.1 10.66-4.9 6.6.25 8.2-4.64 1.2-6.05-2.23-.44-5.3.12-7.25-1.3-1.14-.84-2.72-3.69 0-3.47zM977.83 22.21c-2.72-1-6.09-2.94-9.12-2.27-3.21.7-4.5 3.92-6.85 5.86-6.36 5.27-10.06-2.58-13.55-6.89-3.3-4.06-7.33-5.04-11.99-2.55-1.85 1-9.67 5.56-8.3 8.48.98 2.1 4.84.21 6.15-.25 2.86-1 5.52-1.86 8.44-.41 5.49 2.72 6.91 10.18 13.55 11.34 6.86 1.2 7.08-5.33 11.98-7.79 3.28-1.64 5.57 1.27 8.74.7 3.02-.56 4.41-4.95.95-6.22zM922.43 48.53c2.43.53 4.02-4.18 5.53-5.37 2.52-1.98 6.9-2.38 9.46-.39 5.01 3.89 3.28 12.28 10.42 14.47 6.38 1.96 9.38-6.44 14.75-8.53 3.12-1.22 6.54-2.02 5.33-6.38-.84-3.02-3.32-3.8-6.02-2.63-4.63 1.99-6.2 10.1-11.69 10.24-5.68.15-6.3-8.04-8.73-11.6-3.72-5.44-11.36-6.75-15.7-1.55-1.31 1.56-7.97 10.74-3.35 11.74z" clip-rule="evenodd"/></svg>