<svg xmlns="http://www.w3.org/2000/svg" fill="none" viewBox="0 0 40 19"><path fill="#404041" d="M27.51 17.12c.25-.85.16-1.62-.25-2.2-.38-.52-1.01-.83-1.77-.86l-14.43-.2a.27.27 0 01-.23-.1.32.32 0 01-.03-.27.4.4 0 01.34-.25l14.56-.2a5.21 5.21 0 004.25-3.18l.84-2.17c.03-.1.04-.19.02-.28a9.47 9.47 0 00-18.23-.97 4.27 4.27 0 00-6.7 4.47 6.06 6.06 0 00-5.82 6.93c.02.14.14.25.28.25h26.64c.15 0 .29-.1.34-.26l.2-.71zM32.11 7.84l-.4.01c-.1 0-.17.07-.2.17l-.57 1.96c-.25.84-.15 1.61.26 2.19.37.53 1 .83 1.77.87l3.07.18c.1 0 .17.05.22.12.05.07.06.18.04.26a.4.4 0 01-.34.26l-3.2.18a5.2 5.2 0 00-4.26 3.2l-.24.6c-.04.1.04.23.17.23h11c.12 0 .24-.09.28-.22a7.88 7.88 0 00-7.6-10.01z"/></svg>