<svg xmlns="http://www.w3.org/2000/svg" fill="none" viewBox="0 0 39 40"><path fill="#000" d="M19.26 21.06l-.4.55a48203.73 48203.73 0 00-11 16.2.36.36 0 01-.25.14l-7.5-.08-.11-.02.07-.15a47344.76 47344.76 0 0115.02-23.28c.25-.39.52-.77.76-1.17.06-.11.08-.24.05-.36l-1.4-4.4c-.2-.64-.42-1.26-.6-1.9-.07-.2-.17-.26-.38-.26h-4.7c-.3 0-.3 0-.3-.29V.26c0-.21.07-.26.27-.26h9.46a.3.3 0 01.34.23 54282.37 54282.37 0 0010.8 27.17c.6 1.5 1.22 3.02 1.81 4.54.07.18.15.22.33.16 1.66-.51 3.31-1 4.96-1.52.21-.06.29-.02.35.19l1.71 5.3.06.21c-.12.05-.23.1-.34.13L27 39.98c-.18.06-.23 0-.3-.16a4803.04 4803.04 0 00-6.82-17.23l-.5-1.28-.12-.25z"/></svg>